<?xml version="1.0" encoding="iso-8859-1"?>
<!-- Generator: Adobe Illustrator 16.0.0, SVG Export Plug-In . SVG Version: 6.00 Build 0)  -->
<!DOCTYPE svg PUBLIC "-//W3C//DTD SVG 1.1//EN" "http://www.w3.org/Graphics/SVG/1.1/DTD/svg11.dtd">
<svg version="1.1" id="Capa_1" xmlns="http://www.w3.org/2000/svg" xmlns:xlink="http://www.w3.org/1999/xlink" x="0px" y="0px"
	 width="49.999px" height="49.999px" viewBox="0 0 49.999 49.999" style="enable-background:new 0 0 49.999 49.999;"
	 xml:space="preserve">
<g>
	<path d="M49.474,43.699c-4.904-2.159-7.732-3.954-12.873-5.647c-0.383-0.125-0.841-0.372-0.995-0.668
		c-0.418-0.793-0.711-1.637-1.009-2.475c-0.188-0.532-0.356-1.035-1.039-1.291c-0.183-0.069-0.35-0.377-0.346-0.574
		c0.035-1.94-0.654-3.349,0.196-4.11c1.55-1.394,1.197-3.1,1.973-3.946c0.775-0.846,2.693-6.841,2.326-7.611
		c-0.368-0.769-1.666-0.408-1.362-0.782c1.996-2.46,1.689-9.134,0.912-10.444c-1.03-1.74-5.399-4.136-8.647-1.644
		c-4.573-4.889-11.46-1.568-15.338,2.311c-1.48,1.479-1.778,3.583-1.214,6.048c0.411,1.798,1.201,1.687,1.843,3.727
		c0.079,0.248-0.182,0.694-0.392,0.752c-0.762,0.211-0.782,0.631-0.678,1.174c0.071,0.374,0.654,3.155,0.991,4.152
		c0.254,0.74,0.744,1.439,0.88,2.194c0.274,1.505,0.921,2.814,2.104,3.948c0.196,0.19,0.343,0.506,0.322,0.751
		c-0.092,1.16-0.229,2.318-0.412,3.47c-0.035,0.228-0.313,0.559-0.537,0.601c-0.896,0.161-1.035,0.754-1.248,1.354
		c-0.283,0.79-0.585,1.58-0.941,2.346c-0.113,0.238-0.39,0.485-0.663,0.591c-1.593,0.598-3.217,1.144-4.821,1.722
		c-1.708,0.62-6.232,3.396-7.913,4.167c-0.991,0.456-0.44,4.124-0.44,4.124c19.543,0,30.067,0,49.608,0
		C49.759,47.938,50.456,44.134,49.474,43.699z"/>
</g>
<g>
</g>
<g>
</g>
<g>
</g>
<g>
</g>
<g>
</g>
<g>
</g>
<g>
</g>
<g>
</g>
<g>
</g>
<g>
</g>
<g>
</g>
<g>
</g>
<g>
</g>
<g>
</g>
<g>
</g>
</svg>
